<svg xmlns="http://www.w3.org/2000/svg" viewBox="0 0 200 200" width="100%" height="100%">
  <circle cx="100" cy="100" r="95" fill="#4fb3bf" />
  <path d="M 50,150 
           C 50,130 70,120 85,120
           L 85,100
           C 70,95 65,80 75,70
           C 65,55 80,45 90,52
           C 95,40 110,40 115,52
           C 125,45 140,55 130,70
           C 140,80 135,95 120,100
           L 120,120
           C 135,120 155,130 155,150
           Z" fill="#ffffff" />
  <rect x="94" y="90" width="12" height="60" fill="#ffffff" />
  <path d="M 60,115 C 80,110 120,110 145,115" stroke="#ffffff" stroke-width="4" fill="none" />
  <path d="M 70,130 C 90,125 115,125 135,130" stroke="#ffffff" stroke-width="3" fill="none" />
  <text x="100" y="172" font-family="Arial, Helvetica, sans-serif" font-weight="bold" font-size="22" fill="#ffffff" text-anchor="middle">D-tree</text>
</svg>
